<svg width="67" height="44" viewBox="0 0 67 44" fill="none" xmlns="http://www.w3.org/2000/svg">
<path d="M65.6914 4.61913H54.9609V1.89057C54.9609 1.17862 54.375 0.601509 53.6523 0.601509H25.3867C24.6641 0.601509 24.0781 1.17862 24.0781 1.89057C24.0781 2.60252 24.6641 3.17963 25.3867 3.17963H52.3438V13.0624C52.3438 21.7439 47.6384 29.8127 40.0406 34.203H14.9203C7.3225 29.8128 2.61719 21.7439 2.61719 13.0625V3.17976H11.3848C12.1074 3.17976 12.6934 2.60265 12.6934 1.8907C12.6934 1.17875 12.1074 0.601639 11.3848 0.601639H1.30859C0.585988 0.601639 0 1.17875 0 1.8907V13.0625C0 17.9351 1.32953 22.7129 3.84491 26.8791C5.54124 29.6888 7.74229 32.17 10.3198 34.2031H1.30859C0.585988 34.2031 0 34.7802 0 35.4922C0 40.1835 3.87435 44 8.63672 44H49.4648C54.2272 44 58.1016 40.1835 58.1016 35.4922C58.1016 34.7802 57.5156 34.2031 56.793 34.2031H44.6411C47.0135 32.3319 49.0657 30.0803 50.7002 27.5429H54.3939C61.3449 27.5429 67 21.9722 67 15.125V5.90819C67 5.19625 66.4141 4.61913 65.6914 4.61913ZM55.3411 36.7812C54.742 39.4331 52.3347 41.4219 49.4648 41.4219H8.63672C5.76684 41.4219 3.35968 39.4331 2.76048 36.7812H14.5698H40.3912H55.3411ZM54.9609 13.0625V12.3535H59.1484V15.125C59.1484 17.7075 57.0156 19.8085 54.3939 19.8085H54.0967C54.6679 17.6164 54.9609 15.3499 54.9609 13.0625ZM64.3828 15.125C64.3828 20.5507 59.9018 24.9648 54.3939 24.9648H52.1667C52.5845 24.1242 52.9577 23.2636 53.2838 22.3867H54.3939C58.4588 22.3867 61.7656 19.1291 61.7656 15.125V11.0644C61.7656 10.3525 61.1796 9.77538 60.457 9.77538H54.9609V7.19726H64.3828V15.125Z" fill="#505050"/>
</svg>
