<svg width="41" height="83" viewBox="0 0 41 83" fill="none" xmlns="http://www.w3.org/2000/svg">
<path d="M36.4081 56.7167H33.6414V53.95H37.7914C38.5554 53.95 39.1747 53.3306 39.1747 52.5667V47.0333C39.1747 46.2694 38.5554 45.65 37.7914 45.65H35.0247V13.8333C35.0247 13.0694 34.4054 12.45 33.6414 12.45H29.4914V2.76667H35.0247V0H4.59141V2.76667H10.1247V12.45H5.97474C5.21079 12.45 4.59141 13.0694 4.59141 13.8333V45.65H1.82474C1.06079 45.65 0.441406 46.2694 0.441406 47.0333V52.5667C0.441406 53.3306 1.06079 53.95 1.82474 53.95H5.97474V80.2333C5.97474 81.7614 7.21334 83 8.74141 83H30.8747C32.4028 83 33.6414 81.7614 33.6414 80.2333V76.0833H36.4081C38.7001 76.0833 40.5581 74.2253 40.5581 71.9333V60.8667C40.5581 58.5747 38.7001 56.7167 36.4081 56.7167ZM12.8914 2.76667H26.7247V12.45H12.8914V2.76667ZM12.8914 15.2167H26.7247V40.1167H12.8914V15.2167ZM30.8747 80.2333H8.74141V67.7833H30.8747V80.2333ZM30.8747 65.0167H8.74141V53.95H30.8747V65.0167ZM3.20807 51.1833V48.4167H5.97474C6.73869 48.4167 7.35807 47.7973 7.35807 47.0333V15.2167H10.1247V41.5C10.1247 42.2639 10.7441 42.8833 11.5081 42.8833H28.1081C28.872 42.8833 29.4914 42.2639 29.4914 41.5V15.2167H32.2581V47.0333C32.2581 47.7973 32.8775 48.4167 33.6414 48.4167H36.4081V51.1833H3.20807ZM37.7914 71.9333C37.7914 72.6973 37.172 73.3167 36.4081 73.3167H33.6414V59.4833H36.4081C37.172 59.4833 37.7914 60.1027 37.7914 60.8667V71.9333Z" fill="#505050"/>
</svg>
