<svg width="67" height="79" viewBox="0 0 67 79" fill="none" xmlns="http://www.w3.org/2000/svg">
<path d="M56.4902 25.0167H54.6746C53.7265 24.1725 52.5034 23.7043 51.2352 23.7H48.6078V18.4333C48.9562 18.4333 49.2903 18.2946 49.5367 18.0477C49.7831 17.8008 49.9215 17.4659 49.9215 17.1167V11.85C49.9215 11.5008 49.7831 11.1659 49.5367 10.919C49.2903 10.6721 48.9562 10.5333 48.6078 10.5333H31.5293V7.9H32.843C33.8883 7.9 34.8907 7.48384 35.6298 6.74307C36.369 6.0023 36.7842 4.99761 36.7842 3.95C36.7842 2.9024 36.369 1.8977 35.6298 1.15693C34.8907 0.41616 33.8883 0 32.843 0H22.3331C21.2879 0 20.2854 0.41616 19.5463 1.15693C18.8072 1.8977 18.392 2.9024 18.392 3.95C18.392 4.99761 18.8072 6.0023 19.5463 6.74307C20.2854 7.48384 21.2879 7.9 22.3331 7.9H23.6469V10.5333H6.56837C6.21995 10.5333 5.8858 10.6721 5.63943 10.919C5.39305 11.1659 5.25464 11.5008 5.25464 11.85V15.8H1.31345C1.05366 15.8001 0.799719 15.8773 0.583728 16.022C0.367738 16.1667 0.199396 16.3723 0.099986 16.6128C0.000575969 16.8534 -0.0254389 17.1181 0.0252285 17.3735C0.0758958 17.6288 0.200971 17.8634 0.384643 18.0476L6.56837 24.2451V71.1C6.21995 71.1 5.8858 71.2387 5.63943 71.4856C5.39305 71.7326 5.25464 72.0675 5.25464 72.4167V77.6833C5.25464 78.0325 5.39305 78.3674 5.63943 78.6144C5.8858 78.8613 6.21995 79 6.56837 79H48.6078C48.9562 79 49.2903 78.8613 49.5367 78.6144C49.7831 78.3674 49.9215 78.0325 49.9215 77.6833V72.4167C49.9215 72.0675 49.7831 71.7326 49.5367 71.4856C49.2903 71.2387 48.9562 71.1 48.6078 71.1V65.8333H51.2352C52.5034 65.829 53.7265 65.3608 54.6746 64.5167H56.4902C58.8771 64.5153 61.1702 63.5849 62.8858 61.9217C64.6015 60.2584 65.6055 57.9924 65.6863 55.6015C66.0984 55.2321 66.4284 54.7798 66.6547 54.2742C66.8811 53.7686 66.9987 53.2209 67 52.6667V36.8667C66.9987 36.3125 66.8811 35.7648 66.6547 35.2591C66.4284 34.7535 66.0984 34.3013 65.6863 33.9318C65.6055 31.5409 64.6015 29.2749 62.8858 27.6117C61.1702 25.9484 58.8771 25.018 56.4902 25.0167ZM57.7763 55.5712C57.7142 55.867 57.5525 56.1323 57.3183 56.3226C57.0841 56.513 56.7917 56.6168 56.4902 56.6167H54.6746C53.7265 55.7725 52.5034 55.3043 51.2352 55.3H48.6078V34.2333H51.2352C52.5034 34.229 53.7265 33.7608 54.6746 32.9167H56.4902C56.7917 32.9165 57.0841 33.0204 57.3183 33.2107C57.5525 33.4011 57.7142 33.6664 57.7763 33.9621C57.3729 34.3306 57.0503 34.7791 56.8289 35.279C56.6075 35.779 56.4922 36.3197 56.4902 36.8667V52.6667C56.4922 53.2137 56.6075 53.7543 56.8289 54.2543C57.0503 54.7543 57.3729 55.2027 57.7763 55.5712ZM26.2743 18.4333V22.3833H9.19584V18.4333H26.2743ZM45.9803 32.9167H9.19584V25.0167H45.9803V32.9167ZM9.19584 35.55H26.2743V53.9833H9.19584V35.55ZM28.9018 35.55H45.9803V53.9833H28.9018V35.55ZM51.2352 26.3333C51.9321 26.3333 52.6004 26.6108 53.0931 27.1046C53.5859 27.5985 53.8627 28.2683 53.8627 28.9667C53.8627 29.6651 53.5859 30.3349 53.0931 30.8287C52.6004 31.3226 51.9321 31.6 51.2352 31.6H48.6078V26.3333H51.2352ZM45.9803 22.3833H28.9018V18.4333H45.9803V22.3833ZM21.0194 3.95C21.0194 3.6008 21.1578 3.2659 21.4042 3.01898C21.6506 2.77205 21.9847 2.63333 22.3331 2.63333H32.843C33.1914 2.63333 33.5256 2.77205 33.7719 3.01898C34.0183 3.2659 34.1567 3.6008 34.1567 3.95C34.1567 4.2992 34.0183 4.6341 33.7719 4.88102C33.5256 5.12795 33.1914 5.26667 32.843 5.26667H22.3331C21.9847 5.26667 21.6506 5.12795 21.4042 4.88102C21.1578 4.6341 21.0194 4.2992 21.0194 3.95ZM26.2743 7.9H28.9018V10.5333H26.2743V7.9ZM7.88211 13.1667H47.294V15.8H7.88211V13.1667ZM6.56837 18.4333V20.5216L4.4848 18.4333H6.56837ZM47.294 76.3667H7.88211V73.7333H47.294V76.3667ZM9.19584 71.1V56.6167H45.9803V71.1H9.19584ZM51.2352 63.2H48.6078V57.9333H51.2352C51.9321 57.9333 52.6004 58.2108 53.0931 58.7046C53.5859 59.1985 53.8627 59.8683 53.8627 60.5667C53.8627 61.2651 53.5859 61.9349 53.0931 62.4287C52.6004 62.9226 51.9321 63.2 51.2352 63.2ZM64.3725 52.6667C64.3723 52.8963 64.3114 53.1218 64.196 53.3202C64.0806 53.5187 63.9149 53.6829 63.7157 53.7964C63.5162 53.9118 63.3504 54.0778 63.2351 54.2777C63.1199 54.4776 63.059 54.7044 63.0588 54.9353V55.3C63.0567 57.0454 62.364 58.7187 61.1326 59.9528C59.9012 61.187 58.2316 61.8812 56.4902 61.8833H56.3036C56.5523 61.0233 56.5523 60.1101 56.3036 59.25H56.4902C57.5354 59.25 58.5379 58.8338 59.277 58.0931C60.0161 57.3523 60.4313 56.3476 60.4313 55.3V54.9353C60.4311 54.7044 60.3703 54.4776 60.255 54.2777C60.1397 54.0778 59.974 53.9118 59.7745 53.7964C59.5752 53.6829 59.4095 53.5187 59.2941 53.3202C59.1788 53.1218 59.1179 52.8963 59.1176 52.6667V36.8667C59.1179 36.637 59.1788 36.4115 59.2941 36.2131C59.4095 36.0147 59.5752 35.8504 59.7745 35.737C59.974 35.6215 60.1397 35.4555 60.255 35.2556C60.3703 35.0557 60.4311 34.8289 60.4313 34.5981V34.2333C60.4313 33.1857 60.0161 32.181 59.277 31.4403C58.5379 30.6995 57.5354 30.2833 56.4902 30.2833H56.3036C56.5523 29.4233 56.5523 28.5101 56.3036 27.65H56.4902C58.2316 27.6521 59.9012 28.3464 61.1326 29.5805C62.364 30.8147 63.0567 32.488 63.0588 34.2333V34.5981C63.059 34.8289 63.1199 35.0557 63.2351 35.2556C63.3504 35.4555 63.5162 35.6215 63.7157 35.737C63.9149 35.8504 64.0806 36.0147 64.196 36.2131C64.3114 36.4115 64.3723 36.637 64.3725 36.8667V52.6667Z" fill="#505050"/>
</svg>
