<svg width="54" height="73" viewBox="0 0 54 73" fill="none" xmlns="http://www.w3.org/2000/svg">
<path d="M16.4998 21.9999C15.9478 21.9999 15.4198 21.6969 15.1558 21.1719L6.15582 3.17188C5.78682 2.43088 6.08682 1.52788 6.82782 1.15888C7.57182 0.786877 8.46882 1.08688 8.84082 1.83088L17.8408 19.8309C18.2128 20.5719 17.9098 21.4719 17.1688 21.8439C16.9558 21.9489 16.7278 21.9999 16.4998 21.9999Z" fill="#505050"/>
<path d="M37.4999 21.9999C37.2749 21.9999 37.0469 21.9489 36.8309 21.8409C36.0899 21.4689 35.7899 20.5689 36.1589 19.8279L45.1589 1.8279C45.5309 1.0839 46.4309 0.7869 47.1719 1.1559C47.9129 1.5249 48.2129 2.4279 47.8439 3.1689L38.8439 21.1689C38.5769 21.6969 38.0489 21.9999 37.4999 21.9999Z" fill="#505050"/>
<path d="M49.5001 3.99997H4.50008C3.67208 3.99997 3.00008 3.32797 3.00008 2.49997C3.00008 1.67197 3.67208 0.999968 4.50008 0.999968H49.5001C50.3281 0.999968 51.0001 1.67197 51.0001 2.49997C51.0001 3.32797 50.3281 3.99997 49.5001 3.99997Z" fill="#505050"/>
<path d="M43.4999 31H10.4999C8.01893 31 5.99993 28.981 5.99993 26.5V23.5C5.99993 21.019 8.01893 19 10.4999 19H43.4999C45.9809 19 47.9999 21.019 47.9999 23.5V26.5C47.9999 28.981 45.9809 31 43.4999 31ZM10.4999 22C9.67193 22 8.99993 22.672 8.99993 23.5V26.5C8.99993 27.328 9.67193 28 10.4999 28H43.4999C44.3279 28 44.9999 27.328 44.9999 26.5V23.5C44.9999 22.672 44.3279 22 43.4999 22H10.4999Z" fill="#505050"/>
<path d="M43.5 73H10.5C4.71 73 0 68.29 0 62.5C0 61.072 0.282 59.686 0.837 58.384L12.099 28.963C12.396 28.189 13.269 27.808 14.037 28.099C14.811 28.396 15.198 29.263 14.901 30.037L3.618 59.512C3.201 60.49 3 61.48 3 62.5C3 66.634 6.366 70 10.5 70H43.5C47.634 70 51 66.634 51 62.5C51 61.48 50.799 60.49 50.403 59.563L39.099 30.037C38.802 29.263 39.189 28.396 39.963 28.099C40.734 27.805 41.601 28.186 41.901 28.963L53.184 58.438C53.718 59.689 54 61.072 54 62.5C54 68.29 49.29 73 43.5 73Z" fill="#505050"/>
<path d="M36.366 50.5C33.417 50.5 31.875 49.021 30.636 47.833C29.529 46.768 28.728 46 26.985 46C25.245 46 24.447 46.768 23.34 47.833C22.101 49.021 20.562 50.5 17.616 50.5C14.67 50.5 13.131 49.021 11.895 47.83C10.788 46.768 9.987 46 8.25 46C7.422 46 6.75 45.328 6.75 44.5C6.75 43.672 7.422 43 8.25 43C11.196 43 12.735 44.479 13.971 45.67C15.078 46.732 15.879 47.5 17.616 47.5C19.353 47.5 20.154 46.732 21.261 45.67C22.497 44.482 24.039 43 26.985 43C29.934 43 31.476 44.479 32.715 45.667C33.825 46.729 34.626 47.5 36.366 47.5C38.109 47.5 38.91 46.732 40.02 45.667C41.259 44.479 42.801 43 45.75 43C46.578 43 47.25 43.672 47.25 44.5C47.25 45.328 46.578 46 45.75 46C44.007 46 43.206 46.768 42.096 47.833C40.857 49.021 39.315 50.5 36.366 50.5Z" fill="#505050"/>
</svg>
