<svg width="82" height="77" viewBox="0 0 82 77" fill="none" xmlns="http://www.w3.org/2000/svg">
<path d="M80.5575 1.45711C78.6346 -0.485704 75.5063 -0.485704 73.5835 1.45711L63.6076 11.5379C63.1381 12.0124 63.1374 12.782 63.6062 13.2571C64.075 13.7323 64.8356 13.7329 65.3048 13.2586L75.2808 3.17785C76.2677 2.18058 77.8734 2.18091 78.8601 3.17785C79.3356 3.65848 79.5975 4.30123 79.5975 4.98774C79.5975 5.67425 79.3355 6.31699 78.8601 6.79747L45.2247 40.7868C44.2378 41.7839 42.6323 41.7839 41.6454 40.7868C41.1699 40.3063 40.9079 39.6636 40.9079 38.9771C40.9079 38.5467 41.011 38.1336 41.205 37.7668C41.208 37.7614 41.2115 37.7564 41.2144 37.7509C41.3286 37.5389 41.4724 37.3421 41.6454 37.1672L60.2757 18.3409C60.7453 17.8664 60.746 17.0967 60.2772 16.6216C59.8086 16.1465 59.048 16.1457 58.5786 16.6202L40.3119 35.0786C40.7314 31.5618 42.0786 28.411 42.9378 26.6901C43.2575 26.0522 43.2244 25.2738 42.8512 24.6587C42.5202 24.1131 41.9743 23.7873 41.3914 23.7873H38.5705C37.907 23.7873 37.3694 24.3316 37.3694 25.003C37.3694 25.6745 37.907 26.2188 38.5705 26.2188H40.4905C39.4652 28.3952 38.0709 32.0061 37.8196 35.9567H6.2838C6.03187 32.0001 4.63787 28.3913 3.61335 26.2188H15.5532C15.7489 27.1318 16.0921 28.563 16.5985 30.0931C17.5527 32.9803 21.2863 34.7726 21.7088 34.9674C22.0249 35.1131 22.3887 35.1131 22.7048 34.9674C23.1271 34.7726 26.8585 32.9807 27.8168 30.0929C28.3221 28.563 28.6642 27.1318 28.8595 26.2188H30.7363C31.3999 26.2188 31.9375 25.6745 31.9375 25.003C31.9375 24.3316 31.3999 23.7873 30.7363 23.7873H27.8742C27.2899 23.7873 26.7901 24.2133 26.6905 24.7962C26.6869 24.8178 26.3134 26.9755 25.5391 29.3204C25.0878 30.6802 23.2846 31.9072 22.2072 32.4997C21.1503 31.9155 19.3239 30.6752 18.8764 29.3213C18.0997 26.9747 17.7249 24.8168 17.7211 24.7957C17.6214 24.2129 17.1219 23.7874 16.5375 23.7874H2.85197C2.19677 23.7874 1.5965 24.1309 1.24656 24.7061C0.883965 25.3016 0.852414 26.0606 1.16504 26.6892C1.91729 28.1937 3.57603 31.9137 3.87457 35.9569H2.52685C1.38045 35.9569 0.447698 36.9007 0.447698 38.0607V40.618C0.447698 41.778 1.38045 42.7218 2.52685 42.7218H3.36655C3.16043 44.2402 2.89072 46.1129 2.5954 48.0724C2.4953 48.7362 2.94582 49.3562 3.60166 49.4576C3.663 49.4671 3.72402 49.4717 3.7844 49.4717C4.36769 49.4717 4.87955 49.0406 4.9702 48.4391C5.28891 46.3246 5.57831 44.3082 5.79116 42.7218H38.3112C38.9049 47.1404 39.9953 54.1354 41.5587 63.5506C42.0442 66.4686 41.2772 69.3934 39.4543 71.5752C37.8417 73.5054 35.6448 74.5683 33.2684 74.5683H10.8351C8.45872 74.5683 6.26186 73.5054 4.64908 71.5752C2.82618 69.3934 2.05919 66.4686 2.54511 63.5502C2.99595 60.8345 3.41396 58.2804 3.78728 55.9589C3.89394 55.2962 3.44951 54.6715 2.79479 54.5637C2.13927 54.4547 1.52283 54.9055 1.41632 55.5682C1.04364 57.8857 0.626273 60.4356 0.176233 63.1469C-0.427076 66.7719 0.534663 70.4161 2.81497 73.1453C4.86177 75.595 7.78511 77 10.8354 77H33.2687C36.3191 77 39.2422 75.595 41.2889 73.1455C43.5692 70.4163 44.5311 66.7719 43.9281 63.1472C42.4604 54.3074 41.4114 47.6135 40.8012 43.196C41.6026 43.7079 42.5186 43.9651 43.4353 43.9651C44.6981 43.9651 45.9608 43.4793 46.9222 42.508L80.5575 8.5182C81.4877 7.57816 82 6.32445 82 4.98774C82 3.65103 81.4878 2.39715 80.5575 1.45711ZM2.85004 40.2898V38.388H38.5404C38.5182 38.582 38.5055 38.7785 38.5055 38.9769C38.5055 39.4271 38.5649 39.8673 38.6775 40.2898H2.85004Z" fill="#505050"/>
<path d="M10.8353 67.7897C10.4552 67.7897 10.097 67.5916 9.77024 67.201C9.22171 66.5449 8.99749 65.6247 9.1554 64.6759C10.3928 57.2236 11.3446 51.2153 11.9846 46.8177C12.0813 46.1534 11.6276 45.5356 10.9713 45.4377C10.3165 45.3398 9.70458 45.7989 9.60801 46.4633C8.97042 50.8447 8.02102 56.8367 6.78637 64.2724C6.51074 65.9283 6.93003 67.5683 7.93661 68.7719C8.71834 69.7066 9.74782 70.2213 10.8353 70.2213C11.4988 70.2213 12.0365 69.6769 12.0365 69.0055C12.0365 68.3341 11.4988 67.7897 10.8353 67.7897Z" fill="#505050"/>
<path d="M43.5224 40.1564C44.1858 40.1564 44.7236 39.612 44.7236 38.9406C44.7236 38.2691 44.1858 37.7248 43.5224 37.7248C42.859 37.7248 42.3212 38.2691 42.3212 38.9406C42.3212 39.612 42.859 40.1564 43.5224 40.1564Z" fill="#505050"/>
</svg>
