<svg width="76" height="79" viewBox="0 0 76 79" fill="none" xmlns="http://www.w3.org/2000/svg">
<path d="M1.3228 34.2333H19.7558C20.4833 34.2333 21.0728 33.6439 21.0728 32.9164V31.6H23.706V32.9164C23.706 33.6439 24.2955 34.2333 25.0224 34.2333H26.6274L27.6954 38.503C27.8425 39.0888 28.3687 39.4999 28.9726 39.4999H34.2392C34.8431 39.4999 35.3699 39.0888 35.5164 38.503L36.5844 34.2333H38.1894C38.9163 34.2333 39.5058 33.6439 39.5058 32.9164V26.3335C40.0072 26.3359 40.4671 26.0538 40.6913 25.6054L42.9533 21.0663H48.7226V65.8334H39.9415C42.1354 64.3784 43.4548 61.9217 43.456 59.2896V50.033C43.456 49.3062 42.8665 48.7167 42.139 48.7167H21.0728C20.3453 48.7167 19.7558 49.3062 19.7558 50.033H13.1723C12.4454 50.033 11.856 50.6225 11.856 51.35V59.2499C11.856 59.9773 12.4454 60.5668 13.1723 60.5668H19.8691C20.2247 62.7173 21.4561 64.6243 23.2703 65.8334H13.1729C12.4454 65.8334 11.856 66.4228 11.856 67.1497V77.6835C11.856 78.4103 12.4454 78.9998 13.1729 78.9998H73.7391C74.4666 78.9998 75.056 78.4103 75.056 77.6835V1.31694C75.056 0.589461 74.4666 0 73.7391 0H13.1729C12.4454 0 11.856 0.589461 11.856 1.31694V19.75C11.856 20.4774 12.4454 21.0669 13.1729 21.0669H20.2591L22.5277 25.6054C22.7507 26.0514 23.207 26.3335 23.706 26.3335V28.9668H21.0728V27.6498C21.0728 26.9229 20.4833 26.3335 19.7558 26.3335H1.3228C0.59532 26.3335 0.00585938 26.9229 0.00585938 27.6498V32.9164C0.00585938 33.6439 0.59532 34.2333 1.3228 34.2333ZM14.4892 52.6663H19.7558V57.9335H14.4892V52.6663ZM22.3891 59.2499V51.35H40.8227V59.2896C40.8191 62.1749 38.4811 64.5128 35.5953 64.5164H27.6165C24.7313 64.5128 22.3927 62.1749 22.3897 59.2896L22.3891 59.2499ZM33.2109 36.8666H30.0009L29.3427 34.2333H33.8691L33.2109 36.8666ZM51.3559 21.0663H72.4227V65.8334H51.3559V21.0663ZM72.4227 76.3665H14.4892V68.4667H72.4227V76.3665ZM14.4892 2.63329H72.4227V18.433H14.4892V2.63329ZM23.2028 21.0663H40.009L38.6921 23.7002H24.5197L23.2028 21.0663ZM36.8725 26.3335V31.6H26.3393V26.3335H36.8725ZM2.63915 28.9668H18.4395V31.6H2.63915V28.9668Z" fill="#505050"/>
<path d="M31.6061 15.7998C34.5148 15.7998 36.8727 13.4419 36.8727 10.5332C36.8727 7.62447 34.5148 5.26662 31.6061 5.26662C28.6974 5.26662 26.3395 7.62447 26.3395 10.5332C26.3395 13.4419 28.6974 15.7998 31.6061 15.7998ZM31.6061 7.89992C33.0605 7.89992 34.2394 9.07884 34.2394 10.5332C34.2394 11.9876 33.0605 13.1665 31.6061 13.1665C30.1517 13.1665 28.9728 11.9876 28.9728 10.5332C28.9728 9.07884 30.1517 7.89992 31.6061 7.89992Z" fill="#505050"/>
<path d="M39.5059 9.21681H42.1392V11.8501H39.5059V9.21681Z" fill="#505050"/>
<path d="M44.773 9.21681H47.4063V11.8501H44.773V9.21681Z" fill="#505050"/>
<path d="M60.5726 51.3501H63.2059V61.8833H60.5726V51.3501Z" fill="#505050"/>
<path d="M55.3061 51.3501H57.9394V61.8833H55.3061V51.3501Z" fill="#505050"/>
<path d="M65.8393 51.3501H68.4726V61.8833H65.8393V51.3501Z" fill="#505050"/>
</svg>
