<svg width="74" height="84" viewBox="0 0 74 84" fill="none" xmlns="http://www.w3.org/2000/svg">
<path d="M72.5954 22.2987L67.0215 15.1054C66.2753 14.1422 65.1526 13.5898 63.9413 13.5898H59.3384C58.904 12.7811 58.0556 12.2307 57.0822 12.2307H51.8959L36.7595 7.13705C36.4035 7.01712 36.0393 6.92934 35.6703 6.87241L36.4181 3.09734C36.5694 2.33362 36.3757 1.55023 35.8866 0.947789C35.3978 0.345516 34.6748 0 33.9032 0H29.1108C28.3394 0 27.6166 0.345352 27.1275 0.947625C26.6382 1.5499 26.4445 2.3333 26.5958 3.09717L27.3436 6.87241C26.9747 6.92934 26.6106 7.01712 26.2545 7.13705L11.1182 12.2309H5.93172C4.7071 12.2309 3.53756 12.8213 2.80305 13.8103L0.380128 17.0719C-0.0526174 17.6543 -0.121031 18.4208 0.201375 19.0719C0.523944 19.7233 1.17233 20.1278 1.89352 20.1278H3.90498C3.94528 20.1278 3.98347 20.1474 4.00752 20.1802L12.3334 31.5993L13.0307 37.2309C13.1079 37.8533 13.6327 38.3089 14.2386 38.3089C14.2891 38.3089 14.34 38.3056 14.3913 38.2992C15.059 38.2149 15.5329 37.6 15.4495 36.9257L14.7244 31.0693L15.1924 14.692H21.0088L24.6188 43.849C24.6622 44.1991 24.7523 44.5328 24.8791 44.8468H16.5427C16.4785 44.8468 16.4242 44.7984 16.4164 44.7343L16.0591 41.8478C15.9756 41.1733 15.3676 40.6949 14.6984 40.7794C14.0307 40.8637 13.5569 41.4786 13.6402 42.1529L13.9976 45.0396C14.1578 46.3326 15.2521 47.3077 16.5427 47.3077H16.8277V54.3596H16.5136C15.2337 54.3596 14.1671 55.2871 13.9771 56.565L10.5744 79.4658C10.4053 80.6037 10.7348 81.7563 11.4784 82.6281C12.2221 83.5001 13.3024 84 14.4418 84H17.4166C18.0899 84 18.6354 83.4491 18.6354 82.7695C18.6354 82.09 18.0899 81.5391 17.4166 81.5391H14.4418C14.0062 81.5391 13.6098 81.3555 13.3255 81.0223C13.0412 80.6891 12.9203 80.2659 12.9848 79.8308L13.173 78.5641H49.8407L50.0289 79.8308C50.0934 80.2658 49.9725 80.6889 49.6881 81.0223C49.4037 81.3555 49.0074 81.5391 48.5717 81.5391H22.2919C21.6186 81.5391 21.0731 82.09 21.0731 82.7695C21.0731 83.4491 21.6186 84 22.2919 84H48.5719C49.7115 84 50.7915 83.4999 51.5353 82.6283C52.2789 81.7564 52.6085 80.6037 52.4396 79.466L49.037 56.5648C48.847 55.2869 47.7803 54.3596 46.5005 54.3596H46.1863V47.3074H46.4714C47.762 47.3074 48.8563 46.3324 49.0165 45.0391L51.2597 26.9227H55.211C55.7173 26.9227 56.212 26.8252 56.6811 26.6329L58.9527 25.7025C60.7193 24.9795 62.7422 25.5559 63.8725 27.1053C64.6077 28.1128 64.8768 29.3918 64.6108 30.6142L60.6475 48.8225C60.6345 48.8819 60.5833 48.9236 60.523 48.9236H57.0822C55.6679 48.9236 54.5174 50.0852 54.5174 51.513V54.2309C54.5174 55.6587 55.6679 56.8204 57.0822 56.8204H63.8953C65.7124 56.8204 67.2765 55.5744 67.6988 53.7902L73.8167 27.9566C74.2872 25.9696 73.8419 23.9075 72.5954 22.2987ZM57.2096 14.8204V17.9703C57.2096 18.6951 56.6962 19.3115 55.9887 19.4357L52.1021 20.1182L52.7739 14.6918H57.0822C57.1524 14.6918 57.2096 14.7494 57.2096 14.8204ZM29.0124 2.50802C29.0504 2.46094 29.0959 2.46094 29.1108 2.46094H33.9032C33.9182 2.46094 33.9635 2.46094 34.0019 2.50802C34.04 2.55495 34.0313 2.5999 34.0282 2.61466L33.2001 6.79481H29.814L28.9859 2.61466C28.983 2.60006 28.9742 2.55511 29.0124 2.50802ZM3.90498 17.6667H2.98505L4.75325 15.2867C5.02983 14.9141 5.47038 14.6918 5.93172 14.6918H12.7536L12.387 27.5217L5.97072 18.7213C5.48939 18.061 4.71717 17.6667 3.90498 17.6667ZM27.0256 9.47166C27.4509 9.32843 27.894 9.25591 28.3427 9.25591H34.6715C35.1202 9.25591 35.5632 9.32843 35.9886 9.47182L44.1876 12.2309H18.8265L27.0256 9.47166ZM27.0375 43.5435L23.4652 14.6918H39.5487L35.9768 43.5433C35.8848 44.2862 35.2561 44.8465 34.5147 44.8465H28.4993C27.7578 44.8465 27.1293 44.2864 27.0375 43.5435ZM16.3875 56.9297C16.3969 56.8664 16.4499 56.8203 16.5134 56.8203H24.9176C24.8013 57.1057 24.7138 57.4066 24.667 57.7219L21.936 76.1032H13.5388L16.3875 56.9297ZM36.0299 58.0871L38.7066 76.103H24.401L27.0778 58.087C27.185 57.3649 27.8115 56.8203 28.5348 56.8203H34.5731C35.2962 56.8203 35.9226 57.3649 36.0299 58.0871ZM46.6266 56.9297L49.4752 76.1032H41.1713L38.4403 57.7223C38.3935 57.4069 38.3061 57.1059 38.1896 56.8204H46.5005C46.5642 56.8203 46.6171 56.8664 46.6266 56.9297ZM43.749 54.3593H19.2651V47.3074H43.749V54.3593ZM46.5978 44.7338C46.5898 44.7981 46.5356 44.8465 46.4715 44.8465H38.1351C38.262 44.5326 38.3522 44.1988 38.3956 43.8487L42.0053 14.6918H50.3173L46.5978 44.7338ZM71.4461 27.3842L65.3282 53.2178C65.1691 53.8899 64.5799 54.3593 63.8954 54.3593H57.0822C57.012 54.3593 56.9549 54.3016 56.9549 54.2307V51.5128C56.9549 51.442 57.0121 51.3844 57.0822 51.3844H60.523C61.7182 51.3844 62.7717 50.5291 63.0282 49.3507L66.9914 31.1425C67.4081 29.2276 66.9867 27.224 65.8349 25.6458C64.043 23.1899 60.8357 22.2754 58.0364 23.4224L55.7648 24.3528C55.588 24.4251 55.4017 24.4619 55.211 24.4619H51.5644L51.786 22.6716L56.4063 21.8603C58.2842 21.5306 59.647 19.8947 59.647 17.9704V16.0509H63.9413C64.3976 16.0509 64.8204 16.2591 65.1017 16.6218L70.6756 23.8151C71.4621 24.8299 71.7427 26.1309 71.4461 27.3842Z" fill="#505050"/>
</svg>
