<svg width="84" height="84" viewBox="0 0 84 84" fill="none" xmlns="http://www.w3.org/2000/svg">
<circle cx="42" cy="42" r="42" fill="#F9B300"/>
<path d="M49.5455 57V53.6667C49.5455 51.8986 48.8558 50.2029 47.6283 48.9526C46.4008 47.7024 44.736 47 43 47H31.5455C29.8095 47 28.1446 47.7024 26.9171 48.9526C25.6896 50.2029 25 51.8986 25 53.6667V57M51.1818 40.3333L54.4545 43.6667L61 37M43.8182 33.6667C43.8182 37.3486 40.8877 40.3333 37.2727 40.3333C33.6578 40.3333 30.7273 37.3486 30.7273 33.6667C30.7273 29.9848 33.6578 27 37.2727 27C40.8877 27 43.8182 29.9848 43.8182 33.6667Z" stroke="white" stroke-width="3" stroke-linecap="round" stroke-linejoin="round"/>
</svg>
