<svg width="84" height="84" viewBox="0 0 84 84" fill="none" xmlns="http://www.w3.org/2000/svg">
<circle cx="42" cy="42" r="42" fill="#F9B300"/>
<path d="M51.619 37.5H53.0952C54.6613 37.5 56.1632 38.1321 57.2705 39.2574C58.3779 40.3826 59 41.9087 59 43.5C59 45.0913 58.3779 46.6174 57.2705 47.7426C56.1632 48.8679 54.6613 49.5 53.0952 49.5H51.619M51.619 37.5H28V51C28 52.5913 28.6221 54.1174 29.7295 55.2426C30.8368 56.3679 32.3387 57 33.9048 57H45.7143C47.2803 57 48.7822 56.3679 49.8896 55.2426C50.9969 54.1174 51.619 52.5913 51.619 51V37.5ZM33.9048 27V31.5M39.8095 27V31.5M45.7143 27V31.5" stroke="white" stroke-width="3" stroke-linecap="round" stroke-linejoin="round"/>
</svg>
