<svg width="20" height="19" viewBox="0 0 20 19" fill="none" xmlns="http://www.w3.org/2000/svg">
<path d="M0.831238 16.0602C-0.998416 12.8429 0.246618 7.79684 4.03168 4.02143C8.33002 -0.264162 14.2734 -1.28587 17.3079 1.73945C17.3114 1.74341 17.3144 1.7479 17.3193 1.75192C16.712 3.51381 14.778 7.26265 8.98091 9.28945C3.67048 11.1471 1.62197 14.1005 0.831238 16.0602ZM18.1614 2.84081C17.7014 3.91077 16.9009 5.30904 15.5215 6.68435C14.1351 8.06746 12.1645 9.42587 9.37332 10.4022C3.70834 12.3831 2.12554 15.6259 1.68391 17.1974C1.70478 17.2184 1.72272 17.2401 1.743 17.2605C4.77719 20.2859 10.7208 19.2643 15.0188 14.978C18.8433 11.1643 20.0732 6.05278 18.1614 2.84081Z" fill="#505050"/>
</svg>
